<svg width="30" height="30" viewBox="0 0 30 30" fill="none" xmlns="http://www.w3.org/2000/svg">
<path d="M15.375 27.5H15.25C13.5356 27.4869 11.8411 27.132 10.2657 26.4558C8.69023 25.7797 7.26552 24.7961 6.07497 23.5625C3.86728 21.2016 2.61232 18.1066 2.55231 14.8749C2.49229 11.6432 3.63146 8.50373 5.74997 6.0625C7.11482 4.53293 8.83063 3.3576 10.75 2.6375C10.9739 2.55132 11.2179 2.53143 11.4529 2.58019C11.6879 2.62895 11.9038 2.74432 12.075 2.9125C12.2335 3.07415 12.3451 3.27582 12.398 3.49598C12.4508 3.71613 12.4429 3.94651 12.375 4.1625C11.6899 6.03867 11.5542 8.07131 11.9837 10.0219C12.4132 11.9725 13.3902 13.7601 14.8 15.175C16.2229 16.5804 18.0147 17.5541 19.9681 17.9833C21.9215 18.4124 23.9565 18.2795 25.8375 17.6C26.0614 17.5212 26.3031 17.5078 26.5343 17.5613C26.7655 17.6148 26.9768 17.733 27.1433 17.9021C27.3098 18.0713 27.4247 18.2843 27.4746 18.5164C27.5245 18.7484 27.5073 18.9899 27.425 19.2125C26.7864 20.9171 25.7889 22.4646 24.5 23.75C23.301 24.9454 21.8777 25.892 20.3117 26.5356C18.7457 27.1791 17.068 27.5069 15.375 27.5Z" fill="#2C2C2C"/>
</svg>
