<svg width="54" height="54" viewBox="0 0 54 54" fill="none" xmlns="http://www.w3.org/2000/svg">
<path d="M24.57 6.45298C24.8176 6.02809 25.1723 5.67555 25.5987 5.43052C26.0251 5.18549 26.5083 5.05655 27 5.05655C27.4918 5.05655 27.975 5.18549 28.4014 5.43052C28.8277 5.67555 29.1824 6.02809 29.43 6.45298L35.7188 17.2485L47.9318 19.8945C48.4122 19.9989 48.8568 20.2274 49.2214 20.5572C49.586 20.887 49.8577 21.3066 50.0095 21.7742C50.1614 22.2418 50.188 22.741 50.0868 23.222C49.9855 23.7031 49.7599 24.1493 49.4325 24.516L41.1075 33.8332L42.3675 46.2645C42.4172 46.754 42.3377 47.248 42.1367 47.6971C41.9358 48.1462 41.6206 48.5348 41.2226 48.824C40.8245 49.1132 40.3576 49.2929 39.8683 49.3452C39.3791 49.3975 38.8847 49.3205 38.4345 49.122L27 44.082L15.5655 49.122C15.1153 49.3205 14.621 49.3975 14.1317 49.3452C13.6425 49.2929 13.1755 49.1132 12.7775 48.824C12.3794 48.5348 12.0642 48.1462 11.8633 47.6971C11.6624 47.248 11.5828 46.754 11.6325 46.2645L12.8925 33.8332L4.56753 24.5182C4.23954 24.1515 4.01348 23.7052 3.91191 23.2238C3.81034 22.7425 3.83682 22.2429 3.9887 21.7749C4.14058 21.307 4.41256 20.8871 4.77747 20.5571C5.14238 20.2271 5.58746 19.9987 6.06828 19.8945L18.2813 17.2485L24.57 6.45298Z" fill="#E3C529"/>
</svg>
