<svg width="30" height="30" viewBox="0 0 30 30" fill="none" xmlns="http://www.w3.org/2000/svg">
<path d="M15 21C18.3137 21 21 18.3137 21 15C21 11.6863 18.3137 9 15 9C11.6863 9 9 11.6863 9 15C9 18.3137 11.6863 21 15 21Z" fill="white"/>
<path d="M15 6C14.7348 6 14.4804 5.89464 14.2929 5.70711C14.1054 5.51957 14 5.26522 14 5V3C14 2.73478 14.1054 2.48043 14.2929 2.29289C14.4804 2.10536 14.7348 2 15 2C15.2652 2 15.5196 2.10536 15.7071 2.29289C15.8946 2.48043 16 2.73478 16 3V5C16 5.26522 15.8946 5.51957 15.7071 5.70711C15.5196 5.89464 15.2652 6 15 6ZM15 28C14.7348 28 14.4804 27.8946 14.2929 27.7071C14.1054 27.5196 14 27.2652 14 27V25C14 24.7348 14.1054 24.4804 14.2929 24.2929C14.4804 24.1054 14.7348 24 15 24C15.2652 24 15.5196 24.1054 15.7071 24.2929C15.8946 24.4804 16 24.7348 16 25V27C16 27.2652 15.8946 27.5196 15.7071 27.7071C15.5196 27.8946 15.2652 28 15 28ZM5 16H3C2.73478 16 2.48043 15.8946 2.29289 15.7071C2.10536 15.5196 2 15.2652 2 15C2 14.7348 2.10536 14.4804 2.29289 14.2929C2.48043 14.1054 2.73478 14 3 14H5C5.26522 14 5.51957 14.1054 5.70711 14.2929C5.89464 14.4804 6 14.7348 6 15C6 15.2652 5.89464 15.5196 5.70711 15.7071C5.51957 15.8946 5.26522 16 5 16ZM27 16H25C24.7348 16 24.4804 15.8946 24.2929 15.7071C24.1054 15.5196 24 15.2652 24 15C24 14.7348 24.1054 14.4804 24.2929 14.2929C24.4804 14.1054 24.7348 14 25 14H27C27.2652 14 27.5196 14.1054 27.7071 14.2929C27.8946 14.4804 28 14.7348 28 15C28 15.2652 27.8946 15.5196 27.7071 15.7071C27.5196 15.8946 27.2652 16 27 16ZM6.51 24.49C6.24623 24.4862 5.99463 24.3784 5.81 24.19C5.62375 24.0026 5.51921 23.7492 5.51921 23.485C5.51921 23.2208 5.62375 22.9674 5.81 22.78L7.22 21.36C7.4083 21.1717 7.6637 21.0659 7.93 21.0659C8.1963 21.0659 8.4517 21.1717 8.64 21.36C8.8283 21.5483 8.93409 21.8037 8.93409 22.07C8.93409 22.3363 8.8283 22.5917 8.64 22.78L7.22 24.19C7.12739 24.2845 7.01694 24.3597 6.89507 24.4112C6.77319 24.4627 6.64231 24.4895 6.51 24.49ZM22.07 8.93C21.9384 8.93076 21.8079 8.90554 21.6861 8.85577C21.5643 8.80601 21.4534 8.73268 21.36 8.64C21.2663 8.54704 21.1919 8.43644 21.1411 8.31458C21.0903 8.19272 21.0642 8.06201 21.0642 7.93C21.0642 7.79799 21.0903 7.66728 21.1411 7.54542C21.1919 7.42356 21.2663 7.31296 21.36 7.22L22.78 5.81C22.9713 5.64617 23.2174 5.56057 23.4691 5.57029C23.7207 5.58001 23.9595 5.68434 24.1376 5.86244C24.3157 6.04053 24.42 6.27927 24.4297 6.53095C24.4394 6.78262 24.3538 7.0287 24.19 7.22L22.78 8.64C22.6866 8.73268 22.5757 8.80601 22.4539 8.85577C22.3321 8.90554 22.2016 8.93076 22.07 8.93ZM23.49 24.49C23.3577 24.4895 23.2268 24.4627 23.1049 24.4112C22.9831 24.3597 22.8726 24.2845 22.78 24.19L21.36 22.78C21.2668 22.6868 21.1928 22.5761 21.1423 22.4542C21.0919 22.3324 21.0659 22.2019 21.0659 22.07C21.0659 21.9381 21.0919 21.8076 21.1423 21.6858C21.1928 21.5639 21.2668 21.4532 21.36 21.36C21.4532 21.2668 21.5639 21.1928 21.6858 21.1423C21.8076 21.0919 21.9381 21.0659 22.07 21.0659C22.2019 21.0659 22.3324 21.0919 22.4542 21.1423C22.5761 21.1928 22.6868 21.2668 22.78 21.36L24.19 22.78C24.3763 22.9674 24.4808 23.2208 24.4808 23.485C24.4808 23.7492 24.3763 24.0026 24.19 24.19C24.0054 24.3784 23.7538 24.4862 23.49 24.49ZM7.93 8.93C7.79839 8.93076 7.66793 8.90554 7.54609 8.85577C7.42426 8.80601 7.31344 8.73268 7.22 8.64L5.81 7.22C5.64617 7.0287 5.56057 6.78262 5.57029 6.53095C5.58001 6.27927 5.68434 6.04053 5.86244 5.86244C6.04053 5.68434 6.27927 5.58001 6.53095 5.57029C6.78262 5.56057 7.0287 5.64617 7.22 5.81L8.64 7.22C8.73373 7.31296 8.80812 7.42356 8.85889 7.54542C8.90966 7.66728 8.9358 7.79799 8.9358 7.93C8.9358 8.06201 8.90966 8.19272 8.85889 8.31458C8.80812 8.43644 8.73373 8.54704 8.64 8.64C8.54656 8.73268 8.43574 8.80601 8.31391 8.85577C8.19207 8.90554 8.06161 8.93076 7.93 8.93Z" fill="white"/>
</svg>
